<?xml version="1.0" encoding="UTF-8"?>
<!-- Original Lucid Linux Alpha 0.2 wallpaper. No Apple assets or copied third-party artwork. -->
<svg xmlns="http://www.w3.org/2000/svg" width="3840" height="2160" viewBox="0 0 3840 2160" role="img" aria-label="Lucid Linux Alpha 0.2 glass prism wallpaper">
  <defs>
    <linearGradient id="sky" x1="0" y1="0" x2="0" y2="2160" gradientUnits="userSpaceOnUse">
      <stop offset="0" stop-color="#12182b"/>
      <stop offset="0.38" stop-color="#0d1325"/>
      <stop offset="0.72" stop-color="#111726"/>
      <stop offset="1" stop-color="#080b14"/>
    </linearGradient>
    <radialGradient id="violetBloom" cx="0" cy="0" r="1" gradientUnits="userSpaceOnUse" gradientTransform="translate(2480 540) rotate(90) scale(1120 1680)">
      <stop offset="0" stop-color="#8e78ff" stop-opacity="0.38"/>
      <stop offset="0.36" stop-color="#6348d9" stop-opacity="0.16"/>
      <stop offset="1" stop-color="#0b1020" stop-opacity="0"/>
    </radialGradient>
    <radialGradient id="cyanBloom" cx="0" cy="0" r="1" gradientUnits="userSpaceOnUse" gradientTransform="translate(1190 780) rotate(90) scale(920 1480)">
      <stop offset="0" stop-color="#67e8ff" stop-opacity="0.24"/>
      <stop offset="0.42" stop-color="#2bb7d6" stop-opacity="0.1"/>
      <stop offset="1" stop-color="#0b1020" stop-opacity="0"/>
    </radialGradient>
    <linearGradient id="horizon" x1="0" y1="1240" x2="3840" y2="1240" gradientUnits="userSpaceOnUse">
      <stop offset="0" stop-color="#111827" stop-opacity="0"/>
      <stop offset="0.24" stop-color="#63e4ff" stop-opacity="0.26"/>
      <stop offset="0.5" stop-color="#e6f7ff" stop-opacity="0.36"/>
      <stop offset="0.76" stop-color="#947bff" stop-opacity="0.28"/>
      <stop offset="1" stop-color="#111827" stop-opacity="0"/>
    </linearGradient>
    <linearGradient id="plane" x1="0" y1="1280" x2="0" y2="2160" gradientUnits="userSpaceOnUse">
      <stop offset="0" stop-color="#20283a" stop-opacity="0.68"/>
      <stop offset="0.48" stop-color="#111827" stop-opacity="0.92"/>
      <stop offset="1" stop-color="#070a12"/>
    </linearGradient>
    <linearGradient id="glassCyan" x1="1260" y1="770" x2="1930" y2="1600" gradientUnits="userSpaceOnUse">
      <stop offset="0" stop-color="#c8fbff" stop-opacity="0.62"/>
      <stop offset="0.4" stop-color="#62dfff" stop-opacity="0.24"/>
      <stop offset="1" stop-color="#13263d" stop-opacity="0.06"/>
    </linearGradient>
    <linearGradient id="glassViolet" x1="1970" y1="740" x2="2700" y2="1640" gradientUnits="userSpaceOnUse">
      <stop offset="0" stop-color="#d9cfff" stop-opacity="0.5"/>
      <stop offset="0.46" stop-color="#8870ff" stop-opacity="0.22"/>
      <stop offset="1" stop-color="#17132d" stop-opacity="0.05"/>
    </linearGradient>
    <linearGradient id="edgeLight" x1="1020" y1="1150" x2="2820" y2="1130" gradientUnits="userSpaceOnUse">
      <stop offset="0" stop-color="#60efff" stop-opacity="0"/>
      <stop offset="0.3" stop-color="#7fefff" stop-opacity="0.72"/>
      <stop offset="0.62" stop-color="#e6fbff" stop-opacity="0.62"/>
      <stop offset="1" stop-color="#9d85ff" stop-opacity="0"/>
    </linearGradient>
    <filter id="blur40" x="-15%" y="-20%" width="130%" height="140%">
      <feGaussianBlur stdDeviation="40"/>
    </filter>
    <filter id="softShadow" x="-20%" y="-20%" width="140%" height="150%">
      <feDropShadow dx="0" dy="60" stdDeviation="54" flood-color="#02040a" flood-opacity="0.55"/>
    </filter>
  </defs>

  <rect width="3840" height="2160" fill="url(#sky)"/>
  <rect width="3840" height="2160" fill="url(#violetBloom)"/>
  <rect width="3840" height="2160" fill="url(#cyanBloom)"/>

  <path d="M0 1268C520 1210 1010 1194 1510 1224C1870 1246 2185 1295 2530 1275C3000 1248 3400 1198 3840 1226V2160H0Z" fill="url(#plane)"/>
  <path d="M0 1260C520 1204 1025 1192 1538 1225C1904 1248 2196 1286 2558 1268C3004 1246 3386 1208 3840 1230" fill="none" stroke="url(#horizon)" stroke-width="8" opacity="0.75"/>
  <path d="M0 1315C720 1274 1260 1288 1780 1338C2205 1379 2688 1374 3840 1292" fill="none" stroke="#7fefff" stroke-width="2" opacity="0.12"/>

  <g filter="url(#softShadow)">
    <path d="M1894 595 2665 1246 2052 1712 1184 1226Z" fill="#10192b" opacity="0.72"/>
    <path d="M1894 595 1896 1164 1184 1226Z" fill="url(#glassCyan)"/>
    <path d="M1894 595 2665 1246 1896 1164Z" fill="url(#glassViolet)"/>
    <path d="M1184 1226 1896 1164 2052 1712Z" fill="#1c2940" opacity="0.32"/>
    <path d="M2665 1246 2052 1712 1896 1164Z" fill="#151b31" opacity="0.46"/>
    <path d="M1894 595 2052 1712" fill="none" stroke="#f1fdff" stroke-width="5" opacity="0.28"/>
    <path d="M1184 1226 1896 1164 2665 1246" fill="none" stroke="url(#edgeLight)" stroke-width="6" opacity="0.58"/>
    <path d="M1370 1228 1896 792 2480 1246" fill="none" stroke="#b8f6ff" stroke-width="2" opacity="0.24"/>
  </g>

  <g opacity="0.22" filter="url(#blur40)">
    <path d="M840 1128C1098 1014 1358 975 1660 1030C1380 1095 1185 1172 920 1264Z" fill="#5deaff"/>
    <path d="M2320 1020C2658 940 2958 986 3260 1136C2910 1112 2622 1140 2328 1264Z" fill="#9b83ff"/>
  </g>

  <path d="M470 1610C1020 1505 1430 1488 1935 1544C2395 1594 2925 1584 3370 1498" fill="none" stroke="#e7fbff" stroke-width="2" opacity="0.08"/>
  <path d="M700 1808C1220 1726 1650 1722 2058 1762C2568 1812 3028 1788 3530 1712" fill="none" stroke="#72e9ff" stroke-width="2" opacity="0.06"/>
  <rect width="3840" height="2160" fill="#02040a" opacity="0.18"/>
</svg>
