<?xml version="1.0" encoding="UTF-8"?>
<svg xmlns="http://www.w3.org/2000/svg" width="512" height="512" viewBox="0 0 512 512" role="img" aria-label="Lucid Linux logo">
  <defs>
    <linearGradient id="bg" x1="104" y1="72" x2="408" y2="440" gradientUnits="userSpaceOnUse">
      <stop offset="0" stop-color="#18233d"/>
      <stop offset="0.48" stop-color="#101729"/>
      <stop offset="1" stop-color="#090d18"/>
    </linearGradient>
    <linearGradient id="rim" x1="122" y1="96" x2="390" y2="414" gradientUnits="userSpaceOnUse">
      <stop offset="0" stop-color="#8be9ff"/>
      <stop offset="0.5" stop-color="#8f7bff"/>
      <stop offset="1" stop-color="#46ffd3"/>
    </linearGradient>
    <linearGradient id="facetCyan" x1="155" y1="140" x2="316" y2="346" gradientUnits="userSpaceOnUse">
      <stop offset="0" stop-color="#c9f8ff" stop-opacity="0.96"/>
      <stop offset="0.54" stop-color="#53d9ff" stop-opacity="0.74"/>
      <stop offset="1" stop-color="#1b6c94" stop-opacity="0.62"/>
    </linearGradient>
    <linearGradient id="facetViolet" x1="214" y1="92" x2="370" y2="384" gradientUnits="userSpaceOnUse">
      <stop offset="0" stop-color="#d7caff" stop-opacity="0.92"/>
      <stop offset="0.58" stop-color="#8d73ff" stop-opacity="0.72"/>
      <stop offset="1" stop-color="#2b1f5f" stop-opacity="0.72"/>
    </linearGradient>
    <linearGradient id="innerDark" x1="176" y1="116" x2="322" y2="370" gradientUnits="userSpaceOnUse">
      <stop offset="0" stop-color="#1f3152" stop-opacity="0.82"/>
      <stop offset="1" stop-color="#080b15" stop-opacity="0.9"/>
    </linearGradient>
    <filter id="softGlow" x="-30%" y="-30%" width="160%" height="160%">
      <feGaussianBlur stdDeviation="13" result="blur"/>
      <feColorMatrix in="blur" type="matrix" values="0 0 0 0 0.17 0 0 0 0 0.82 0 0 0 0 1 0 0 0 0.55 0"/>
      <feBlend in="SourceGraphic" mode="screen"/>
    </filter>
    <filter id="shadow" x="-20%" y="-20%" width="140%" height="145%">
      <feDropShadow dx="0" dy="18" stdDeviation="22" flood-color="#02040a" flood-opacity="0.52"/>
    </filter>
  </defs>

  <rect width="512" height="512" rx="112" fill="url(#bg)"/>
  <circle cx="256" cy="256" r="174" fill="none" stroke="url(#rim)" stroke-width="14" opacity="0.34" filter="url(#softGlow)"/>

  <g filter="url(#shadow)">
    <path d="M256 82 399 164 399 326 256 430 113 326 113 164Z" fill="#0e1424" stroke="url(#rim)" stroke-width="8" stroke-linejoin="round"/>
    <path d="M256 82 256 220 113 164Z" fill="url(#facetCyan)" opacity="0.86"/>
    <path d="M256 82 399 164 256 220Z" fill="url(#facetViolet)" opacity="0.9"/>
    <path d="M113 164 256 220 193 319 113 326Z" fill="#203557" opacity="0.78"/>
    <path d="M399 164 399 326 319 319 256 220Z" fill="#171f39" opacity="0.9"/>
    <path d="M193 319 256 220 319 319 256 430Z" fill="url(#innerDark)"/>
    <path d="M113 326 193 319 256 430Z" fill="#10192b"/>
    <path d="M399 326 319 319 256 430Z" fill="#0a1020"/>
  </g>

  <path d="M206 149V325H326" fill="none" stroke="#e9fbff" stroke-width="42" stroke-linecap="round" stroke-linejoin="round" opacity="0.94"/>
  <path d="M206 149V325H326" fill="none" stroke="#61e7ff" stroke-width="18" stroke-linecap="round" stroke-linejoin="round" opacity="0.58" filter="url(#softGlow)"/>
  <path d="M158 165 255 203 354 165M192 319 256 221 320 319" fill="none" stroke="#e6f7ff" stroke-width="3" stroke-linecap="round" stroke-linejoin="round" opacity="0.36"/>
  <circle cx="346" cy="148" r="10" fill="#76f6ff" opacity="0.9"/>
</svg>
